<svg width="264" height="65" viewBox="0 0 264 65" fill="none" xmlns="http://www.w3.org/2000/svg">
<path d="M25.8242 37.6878V27.1563V25.7631V22.168C23.5798 22.7354 21.488 23.3452 19.5485 23.9973V28.2446V29.6844V33.4828C19.5485 35.7525 19.3114 37.2092 18.8371 37.8656C18.0495 38.9497 16.7156 39.4917 14.8481 39.4917H13.1797V40.5842H32.9764C36.8553 40.5842 40.2853 40.1565 43.2622 39.3011V33.9825C41.4498 37.2601 36.8257 38.5093 32.7816 38.5093C30.9099 38.5093 28.5894 38.2382 25.8242 37.6878Z" fill="#152971"/>
<path d="M57.7869 19.551C57.7826 19.3308 57.7742 19.1148 57.753 18.8988C57.7403 18.6744 57.7276 18.4542 57.7022 18.2298C57.41 14.9141 56.3895 11.9499 54.6491 9.32018C52.5487 6.14424 49.7708 3.8745 46.3196 2.51519C42.8684 1.15589 37.8335 0.474121 31.2106 0.474121H13.1797V1.56665H14.8481C16.5293 1.56665 17.7912 2.00281 18.6381 2.86667C19.2479 3.50185 19.5485 5.06865 19.5485 7.57553V22.6168L25.8242 20.8256V3.57808C28.3268 3.00217 30.5585 2.72269 32.5191 2.72269C37.7403 2.72269 42.0257 4.31913 45.3584 7.51625C48.1235 10.1713 49.7454 13.6268 50.2027 17.9122C50.2366 18.1281 50.2535 18.3399 50.2747 18.5643C50.2874 18.7803 50.3086 18.9962 50.3128 19.2164C50.3425 19.6738 50.3552 20.1396 50.3552 20.6181C50.3552 21.1855 50.334 21.736 50.2959 22.278C50.2874 22.4982 50.2705 22.7227 50.2408 22.9386C50.2281 23.1588 50.2027 23.3833 50.1773 23.5992C49.8174 26.4999 48.9154 29.0237 47.4629 31.1834V37.6877C49.2669 36.7773 50.8379 35.6551 52.1845 34.3127C55.1784 31.3189 56.9781 27.7364 57.5709 23.5654C57.6048 23.3579 57.6302 23.1419 57.6556 22.9175C57.681 22.7015 57.7022 22.4855 57.7234 22.2653C57.7742 21.6301 57.7996 20.9823 57.7996 20.3217C57.7996 20.0591 57.7954 19.805 57.7869 19.551Z" fill="#D02824"/>
<path d="M66.064 38.288H62.288L61.728 40H58L62.144 28.672H66.24L70.368 40H66.624L66.064 38.288ZM65.2 35.616L64.176 32.464L63.152 35.616H65.2ZM74.727 28.16V40H71.175V28.16H74.727ZM83.77 28.672C84.954 28.672 85.9887 28.912 86.874 29.392C87.77 29.872 88.458 30.5387 88.938 31.392C89.418 32.2453 89.658 33.216 89.658 34.304C89.658 35.3813 89.418 36.352 88.938 37.216C88.458 38.08 87.77 38.7627 86.874 39.264C85.9887 39.7547 84.954 40 83.77 40H79.05V28.672H83.77ZM83.45 36.832C84.25 36.832 84.8847 36.6133 85.354 36.176C85.8233 35.7387 86.058 35.1147 86.058 34.304C86.058 33.4933 85.8233 32.8693 85.354 32.432C84.8847 31.9947 84.25 31.776 83.45 31.776H82.602V36.832H83.45ZM90.4606 35.488C90.4606 34.5387 90.6206 33.7173 90.9406 33.024C91.2713 32.32 91.7193 31.7867 92.2846 31.424C92.85 31.0507 93.4846 30.864 94.1886 30.864C94.7753 30.864 95.282 30.9867 95.7086 31.232C96.1353 31.4667 96.4606 31.792 96.6846 32.208V30.976H100.221V40H96.6846V38.768C96.4606 39.184 96.1353 39.5147 95.7086 39.76C95.282 39.9947 94.7753 40.112 94.1886 40.112C93.4846 40.112 92.85 39.9307 92.2846 39.568C91.7193 39.1947 91.2713 38.6613 90.9406 37.968C90.6206 37.264 90.4606 36.4373 90.4606 35.488ZM96.6846 35.488C96.6846 35.008 96.562 34.6347 96.3166 34.368C96.0713 34.1013 95.7566 33.968 95.3726 33.968C94.9886 33.968 94.674 34.1013 94.4286 34.368C94.1833 34.6347 94.0606 35.008 94.0606 35.488C94.0606 35.968 94.1833 36.3413 94.4286 36.608C94.674 36.8747 94.9886 37.008 95.3726 37.008C95.7566 37.008 96.0713 36.8747 96.3166 36.608C96.562 36.3413 96.6846 35.968 96.6846 35.488ZM108.136 30.912C109.17 30.912 109.976 31.2587 110.552 31.952C111.138 32.6453 111.432 33.584 111.432 34.768V40H107.896V35.216C107.896 34.7893 107.778 34.4533 107.544 34.208C107.32 33.952 107.016 33.824 106.632 33.824C106.237 33.824 105.928 33.952 105.704 34.208C105.48 34.4533 105.368 34.7893 105.368 35.216V40H101.816V30.976H105.368V32.352C105.645 31.9253 106.013 31.5787 106.472 31.312C106.941 31.0453 107.496 30.912 108.136 30.912ZM112.492 35.488C112.492 34.5387 112.652 33.7173 112.972 33.024C113.303 32.32 113.751 31.7867 114.316 31.424C114.881 31.0507 115.516 30.864 116.22 30.864C116.807 30.864 117.313 30.9867 117.74 31.232C118.167 31.4667 118.492 31.792 118.716 32.208V30.976H122.252V40H118.716V38.768C118.492 39.184 118.167 39.5147 117.74 39.76C117.313 39.9947 116.807 40.112 116.22 40.112C115.516 40.112 114.881 39.9307 114.316 39.568C113.751 39.1947 113.303 38.6613 112.972 37.968C112.652 37.264 112.492 36.4373 112.492 35.488ZM118.716 35.488C118.716 35.008 118.593 34.6347 118.348 34.368C118.103 34.1013 117.788 33.968 117.404 33.968C117.02 33.968 116.705 34.1013 116.46 34.368C116.215 34.6347 116.092 35.008 116.092 35.488C116.092 35.968 116.215 36.3413 116.46 36.608C116.705 36.8747 117.02 37.008 117.404 37.008C117.788 37.008 118.103 36.8747 118.348 36.608C118.593 36.3413 118.716 35.968 118.716 35.488ZM130.167 30.912C131.202 30.912 132.007 31.2587 132.583 31.952C133.17 32.6453 133.463 33.584 133.463 34.768V40H129.927V35.216C129.927 34.7893 129.81 34.4533 129.575 34.208C129.351 33.952 129.047 33.824 128.663 33.824C128.268 33.824 127.959 33.952 127.735 34.208C127.511 34.4533 127.399 34.7893 127.399 35.216V40H123.847V28.16H127.399V32.352C127.676 31.9253 128.044 31.5787 128.503 31.312C128.972 31.0453 129.527 30.912 130.167 30.912ZM149.033 40L148.249 39.264C147.246 39.8613 146.067 40.16 144.713 40.16C143.795 40.16 142.995 40.016 142.313 39.728C141.641 39.44 141.123 39.0347 140.761 38.512C140.398 37.9787 140.217 37.3707 140.217 36.688C140.217 36.0373 140.382 35.4453 140.713 34.912C141.054 34.368 141.561 33.9093 142.233 33.536C141.742 32.928 141.497 32.288 141.497 31.616C141.497 31.04 141.646 30.512 141.945 30.032C142.254 29.552 142.702 29.1733 143.289 28.896C143.875 28.608 144.574 28.464 145.385 28.464C146.206 28.464 146.905 28.6133 147.481 28.912C148.057 29.2 148.489 29.584 148.777 30.064C149.065 30.544 149.209 31.0613 149.209 31.616H145.977C145.977 31.4133 145.918 31.264 145.801 31.168C145.683 31.0613 145.545 31.008 145.385 31.008C145.214 31.008 145.065 31.0613 144.937 31.168C144.819 31.264 144.761 31.4027 144.761 31.584C144.761 31.9253 144.995 32.32 145.465 32.768L148.041 35.264C148.19 34.976 148.323 34.6507 148.441 34.288L148.489 34.144H151.929L151.769 34.56C151.363 35.6267 150.862 36.576 150.265 37.408L152.937 40H149.033ZM144.969 37.36C145.353 37.36 145.71 37.3013 146.041 37.184L144.153 35.424C143.971 35.552 143.833 35.7013 143.737 35.872C143.651 36.032 143.609 36.1973 143.609 36.368C143.609 36.6453 143.726 36.88 143.961 37.072C144.206 37.264 144.542 37.36 144.969 37.36ZM160.008 37.312H163.432V40H156.456V28.672H160.008V37.312ZM174.102 30.976V40H170.55V38.624C170.273 39.0507 169.899 39.3973 169.43 39.664C168.971 39.9307 168.422 40.064 167.782 40.064C166.747 40.064 165.937 39.7173 165.35 39.024C164.774 38.3307 164.486 37.392 164.486 36.208V30.976H168.022V35.76C168.022 36.1867 168.134 36.528 168.358 36.784C168.593 37.0293 168.902 37.152 169.286 37.152C169.681 37.152 169.99 37.0293 170.214 36.784C170.438 36.528 170.55 36.1867 170.55 35.76V30.976H174.102ZM179.258 28.16V40H175.706V28.16H179.258ZM190.415 30.976V40H186.863V38.624C186.585 39.0507 186.212 39.3973 185.743 39.664C185.284 39.9307 184.735 40.064 184.095 40.064C183.06 40.064 182.249 39.7173 181.663 39.024C181.087 38.3307 180.799 37.392 180.799 36.208V30.976H184.335V35.76C184.335 36.1867 184.447 36.528 184.671 36.784C184.905 37.0293 185.215 37.152 185.599 37.152C185.993 37.152 186.303 37.0293 186.527 36.784C186.751 36.528 186.863 36.1867 186.863 35.76V30.976H190.415ZM201.682 32.544C201.543 32.32 201.346 32.1493 201.09 32.032C200.834 31.904 200.524 31.84 200.162 31.84C199.479 31.84 198.951 32.064 198.578 32.512C198.204 32.9493 198.018 33.552 198.018 34.32C198.018 35.2053 198.226 35.8667 198.641 36.304C199.058 36.7413 199.698 36.96 200.562 36.96C201.383 36.96 202.044 36.6293 202.546 35.968H199.714V33.456H205.49V37.008C204.999 37.8507 204.322 38.576 203.458 39.184C202.594 39.7813 201.5 40.08 200.178 40.08C199.004 40.08 197.98 39.84 197.106 39.36C196.242 38.8693 195.575 38.1867 195.106 37.312C194.647 36.4373 194.418 35.44 194.418 34.32C194.418 33.2 194.647 32.2027 195.106 31.328C195.575 30.4533 196.242 29.776 197.106 29.296C197.97 28.8053 198.983 28.56 200.146 28.56C201.628 28.56 202.834 28.9173 203.762 29.632C204.7 30.3467 205.255 31.3173 205.426 32.544H201.682ZM215.505 35.408C215.505 35.6533 215.489 35.888 215.457 36.112H209.745C209.798 36.8907 210.123 37.28 210.721 37.28C211.105 37.28 211.382 37.104 211.553 36.752H215.313C215.185 37.392 214.913 37.968 214.497 38.48C214.091 38.9813 213.574 39.3813 212.945 39.68C212.326 39.968 211.643 40.112 210.897 40.112C210.001 40.112 209.201 39.9253 208.497 39.552C207.803 39.1787 207.259 38.6453 206.865 37.952C206.481 37.248 206.289 36.4267 206.289 35.488C206.289 34.5493 206.481 33.7333 206.865 33.04C207.259 32.336 207.803 31.7973 208.497 31.424C209.201 31.0507 210.001 30.864 210.897 30.864C211.793 30.864 212.587 31.0507 213.281 31.424C213.985 31.7867 214.529 32.3093 214.913 32.992C215.307 33.6747 215.505 34.48 215.505 35.408ZM211.905 34.56C211.905 34.2613 211.809 34.0373 211.617 33.888C211.425 33.728 211.185 33.648 210.897 33.648C210.267 33.648 209.899 33.952 209.793 34.56H211.905ZM222.948 30.912C223.983 30.912 224.788 31.2587 225.364 31.952C225.951 32.6453 226.244 33.584 226.244 34.768V40H222.708V35.216C222.708 34.7893 222.591 34.4533 222.356 34.208C222.132 33.952 221.828 33.824 221.444 33.824C221.049 33.824 220.74 33.952 220.516 34.208C220.292 34.4533 220.18 34.7893 220.18 35.216V40H216.628V30.976H220.18V32.352C220.457 31.9253 220.825 31.5787 221.284 31.312C221.753 31.0453 222.308 30.912 222.948 30.912ZM236.52 35.408C236.52 35.6533 236.504 35.888 236.472 36.112H230.76C230.814 36.8907 231.139 37.28 231.736 37.28C232.12 37.28 232.398 37.104 232.568 36.752H236.328C236.2 37.392 235.928 37.968 235.512 38.48C235.107 38.9813 234.59 39.3813 233.96 39.68C233.342 39.968 232.659 40.112 231.912 40.112C231.016 40.112 230.216 39.9253 229.512 39.552C228.819 39.1787 228.275 38.6453 227.88 37.952C227.496 37.248 227.304 36.4267 227.304 35.488C227.304 34.5493 227.496 33.7333 227.88 33.04C228.275 32.336 228.819 31.7973 229.512 31.424C230.216 31.0507 231.016 30.864 231.912 30.864C232.808 30.864 233.603 31.0507 234.296 31.424C235 31.7867 235.544 32.3093 235.928 32.992C236.323 33.6747 236.52 34.48 236.52 35.408ZM232.92 34.56C232.92 34.2613 232.824 34.0373 232.632 33.888C232.44 33.728 232.2 33.648 231.912 33.648C231.283 33.648 230.915 33.952 230.808 34.56H232.92ZM241.196 32.64C241.558 32.1173 242.001 31.7013 242.524 31.392C243.046 31.072 243.59 30.912 244.156 30.912V34.704H243.148C242.476 34.704 241.98 34.8213 241.66 35.056C241.35 35.2907 241.196 35.7067 241.196 36.304V40H237.644V30.976H241.196V32.64ZM244.633 35.488C244.633 34.5387 244.793 33.7173 245.113 33.024C245.443 32.32 245.891 31.7867 246.457 31.424C247.022 31.0507 247.657 30.864 248.361 30.864C248.947 30.864 249.454 30.9867 249.881 31.232C250.307 31.4667 250.633 31.792 250.857 32.208V30.976H254.393V40H250.857V38.768C250.633 39.184 250.307 39.5147 249.881 39.76C249.454 39.9947 248.947 40.112 248.361 40.112C247.657 40.112 247.022 39.9307 246.457 39.568C245.891 39.1947 245.443 38.6613 245.113 37.968C244.793 37.264 244.633 36.4373 244.633 35.488ZM250.857 35.488C250.857 35.008 250.734 34.6347 250.489 34.368C250.243 34.1013 249.929 33.968 249.545 33.968C249.161 33.968 248.846 34.1013 248.601 34.368C248.355 34.6347 248.233 35.008 248.233 35.488C248.233 35.968 248.355 36.3413 248.601 36.608C248.846 36.8747 249.161 37.008 249.545 37.008C249.929 37.008 250.243 36.8747 250.489 36.608C250.734 36.3413 250.857 35.968 250.857 35.488ZM259.54 28.16V40H255.988V28.16H259.54ZM66.096 46.848V48.032H63.056V58H61.6V48.032H58.544V46.848H66.096ZM69.3443 50.656C69.6003 50.1547 69.9629 49.7653 70.4323 49.488C70.9123 49.2107 71.4936 49.072 72.1763 49.072V50.576H71.7923C70.1603 50.576 69.3443 51.4613 69.3443 53.232V58H67.8883V49.232H69.3443V50.656ZM73.313 53.584C73.313 52.688 73.4943 51.904 73.857 51.232C74.2197 50.5493 74.7157 50.0213 75.345 49.648C75.985 49.2747 76.6943 49.088 77.473 49.088C78.241 49.088 78.9077 49.2533 79.473 49.584C80.0383 49.9147 80.4597 50.3307 80.737 50.832V49.232H82.209V58H80.737V56.368C80.449 56.88 80.017 57.3067 79.441 57.648C78.8757 57.9787 78.2143 58.144 77.457 58.144C76.6783 58.144 75.9743 57.952 75.345 57.568C74.7157 57.184 74.2197 56.6453 73.857 55.952C73.4943 55.2587 73.313 54.4693 73.313 53.584ZM80.737 53.6C80.737 52.9387 80.6037 52.3627 80.337 51.872C80.0703 51.3813 79.7077 51.008 79.249 50.752C78.801 50.4853 78.305 50.352 77.761 50.352C77.217 50.352 76.721 50.48 76.273 50.736C75.825 50.992 75.4677 51.3653 75.201 51.856C74.9343 52.3467 74.801 52.9227 74.801 53.584C74.801 54.256 74.9343 54.8427 75.201 55.344C75.4677 55.8347 75.825 56.2133 76.273 56.48C76.721 56.736 77.217 56.864 77.761 56.864C78.305 56.864 78.801 56.736 79.249 56.48C79.7077 56.2133 80.0703 55.8347 80.337 55.344C80.6037 54.8427 80.737 54.2613 80.737 53.6ZM84.1255 53.584C84.1255 52.688 84.3068 51.904 84.6695 51.232C85.0322 50.5493 85.5282 50.0213 86.1575 49.648C86.7975 49.2747 87.5122 49.088 88.3015 49.088C88.9842 49.088 89.6188 49.248 90.2055 49.568C90.7922 49.8773 91.2402 50.288 91.5495 50.8V46.16H93.0215V58H91.5495V56.352C91.2615 56.8747 90.8348 57.3067 90.2695 57.648C89.7042 57.9787 89.0428 58.144 88.2855 58.144C87.5068 58.144 86.7975 57.952 86.1575 57.568C85.5282 57.184 85.0322 56.6453 84.6695 55.952C84.3068 55.2587 84.1255 54.4693 84.1255 53.584ZM91.5495 53.6C91.5495 52.9387 91.4162 52.3627 91.1495 51.872C90.8828 51.3813 90.5202 51.008 90.0615 50.752C89.6135 50.4853 89.1175 50.352 88.5735 50.352C88.0295 50.352 87.5335 50.48 87.0855 50.736C86.6375 50.992 86.2802 51.3653 86.0135 51.856C85.7468 52.3467 85.6135 52.9227 85.6135 53.584C85.6135 54.256 85.7468 54.8427 86.0135 55.344C86.2802 55.8347 86.6375 56.2133 87.0855 56.48C87.5335 56.736 88.0295 56.864 88.5735 56.864C89.1175 56.864 89.6135 56.736 90.0615 56.48C90.5202 56.2133 90.8828 55.8347 91.1495 55.344C91.4162 54.8427 91.5495 54.2613 91.5495 53.6ZM96.234 47.808C95.9567 47.808 95.722 47.712 95.53 47.52C95.338 47.328 95.242 47.0933 95.242 46.816C95.242 46.5387 95.338 46.304 95.53 46.112C95.722 45.92 95.9567 45.824 96.234 45.824C96.5007 45.824 96.7247 45.92 96.906 46.112C97.098 46.304 97.194 46.5387 97.194 46.816C97.194 47.0933 97.098 47.328 96.906 47.52C96.7247 47.712 96.5007 47.808 96.234 47.808ZM96.938 49.232V58H95.482V49.232H96.938ZM103.692 49.072C104.758 49.072 105.622 49.3973 106.284 50.048C106.945 50.688 107.276 51.616 107.276 52.832V58H105.836V53.04C105.836 52.1653 105.617 51.4987 105.18 51.04C104.742 50.5707 104.145 50.336 103.388 50.336C102.62 50.336 102.006 50.576 101.548 51.056C101.1 51.536 100.876 52.2347 100.876 53.152V58H99.4195V49.232H100.876V50.48C101.164 50.032 101.553 49.6853 102.044 49.44C102.545 49.1947 103.094 49.072 103.692 49.072ZM113.27 49.088C114.027 49.088 114.689 49.2533 115.254 49.584C115.83 49.9147 116.257 50.3307 116.534 50.832V49.232H118.006V58.192C118.006 58.992 117.835 59.7013 117.494 60.32C117.153 60.9493 116.662 61.44 116.022 61.792C115.393 62.144 114.657 62.32 113.814 62.32C112.662 62.32 111.702 62.048 110.934 61.504C110.166 60.96 109.713 60.2187 109.574 59.28H111.014C111.174 59.8133 111.505 60.24 112.006 60.56C112.507 60.8907 113.11 61.056 113.814 61.056C114.614 61.056 115.265 60.8053 115.766 60.304C116.278 59.8027 116.534 59.0987 116.534 58.192V56.352C116.246 56.864 115.819 57.2907 115.254 57.632C114.689 57.9733 114.027 58.144 113.27 58.144C112.491 58.144 111.782 57.952 111.142 57.568C110.513 57.184 110.017 56.6453 109.654 55.952C109.291 55.2587 109.11 54.4693 109.11 53.584C109.11 52.688 109.291 51.904 109.654 51.232C110.017 50.5493 110.513 50.0213 111.142 49.648C111.782 49.2747 112.491 49.088 113.27 49.088ZM116.534 53.6C116.534 52.9387 116.401 52.3627 116.134 51.872C115.867 51.3813 115.505 51.008 115.046 50.752C114.598 50.4853 114.102 50.352 113.558 50.352C113.014 50.352 112.518 50.48 112.07 50.736C111.622 50.992 111.265 51.3653 110.998 51.856C110.731 52.3467 110.598 52.9227 110.598 53.584C110.598 54.256 110.731 54.8427 110.998 55.344C111.265 55.8347 111.622 56.2133 112.07 56.48C112.518 56.736 113.014 56.864 113.558 56.864C114.102 56.864 114.598 56.736 115.046 56.48C115.505 56.2133 115.867 55.8347 116.134 55.344C116.401 54.8427 116.534 54.2613 116.534 53.6ZM126.188 56.816H130.092V58H124.732V46.848H126.188V56.816ZM132.102 58.096C131.825 58.096 131.59 58 131.398 57.808C131.206 57.616 131.11 57.3813 131.11 57.104C131.11 56.8267 131.206 56.592 131.398 56.4C131.59 56.208 131.825 56.112 132.102 56.112C132.369 56.112 132.593 56.208 132.774 56.4C132.966 56.592 133.062 56.8267 133.062 57.104C133.062 57.3813 132.966 57.616 132.774 57.808C132.593 58 132.369 58.096 132.102 58.096ZM136.454 56.816H140.358V58H134.998V46.848H136.454V56.816ZM142.368 58.096C142.091 58.096 141.856 58 141.664 57.808C141.472 57.616 141.376 57.3813 141.376 57.104C141.376 56.8267 141.472 56.592 141.664 56.4C141.856 56.208 142.091 56.112 142.368 56.112C142.635 56.112 142.859 56.208 143.04 56.4C143.232 56.592 143.328 56.8267 143.328 57.104C143.328 57.3813 143.232 57.616 143.04 57.808C142.859 58 142.635 58.096 142.368 58.096ZM144.719 52.416C144.719 51.328 144.965 50.352 145.455 49.488C145.946 48.6133 146.613 47.9307 147.455 47.44C148.309 46.9493 149.253 46.704 150.287 46.704C151.503 46.704 152.565 46.9973 153.471 47.584C154.378 48.1707 155.039 49.0027 155.455 50.08H153.711C153.402 49.408 152.954 48.8907 152.367 48.528C151.791 48.1653 151.098 47.984 150.287 47.984C149.509 47.984 148.81 48.1653 148.191 48.528C147.573 48.8907 147.087 49.408 146.735 50.08C146.383 50.7413 146.207 51.52 146.207 52.416C146.207 53.3013 146.383 54.08 146.735 54.752C147.087 55.4133 147.573 55.9253 148.191 56.288C148.81 56.6507 149.509 56.832 150.287 56.832C151.098 56.832 151.791 56.656 152.367 56.304C152.954 55.9413 153.402 55.424 153.711 54.752H155.455C155.039 55.8187 154.378 56.6453 153.471 57.232C152.565 57.808 151.503 58.096 150.287 58.096C149.253 58.096 148.309 57.856 147.455 57.376C146.613 56.8853 145.946 56.208 145.455 55.344C144.965 54.48 144.719 53.504 144.719 52.416Z" fill="#152971"/>
<path d="M89 27.1734C78.4135 23.8958 57.8461 22.2951 57.3718 22.3417C56.1142 22.4645 49.703 22.2951 49.2499 22.3121C40.0481 22.6678 33.15 23.8662 30.3424 24.4251C29.5209 24.586 28.7163 24.7935 27.916 25.0561C27.2004 25.289 26.4974 25.5219 25.8241 25.7633L19.5485 28.2447C-6.15975 39.784 9.76655 53.0002 9.76655 53.0002C-5.50339 44.6368 -3.32681 31.6324 19.5485 23.9974C21.4879 23.3453 23.5798 22.7355 25.8241 22.1681C27.1651 21.835 28.5583 21.5145 30.0037 21.2068C36.8129 19.7755 43.3723 19.2123 49.4785 19.2123C49.758 19.2123 50.0333 19.2123 50.3128 19.2166C50.3085 18.9964 57.7826 19.3309 57.7868 19.5511C75.7118 21.0374 88.1954 26.7965 89 27.1734Z" fill="#0F2E93"/>
</svg>
